<?xml version="1.0" encoding="utf-8"?>
<!-- Generator: Adobe Illustrator 16.0.0, SVG Export Plug-In . SVG Version: 6.00 Build 0)  -->
<!DOCTYPE svg PUBLIC "-//W3C//DTD SVG 1.1//EN" "http://www.w3.org/Graphics/SVG/1.1/DTD/svg11.dtd">
<svg version="1.1" id="Layer_1" xmlns="http://www.w3.org/2000/svg" xmlns:xlink="http://www.w3.org/1999/xlink" x="0px" y="0px"
	 width="220.164px" height="47.915px" viewBox="0 0 220.164 47.915" enable-background="new 0 0 220.164 47.915"
	 xml:space="preserve">
<g>
	<path fill="#FFFFFF" d="M0.127,38.731c-0.248-3.314-0.132-8.482,0.344-15.501c0.476-7.019,0.537-12.38,0.185-16.083
		c-0.141-1.376,0.335-2.346,1.429-2.91c1.093-0.563,2.239-0.563,3.438,0c1.199,0.564,1.869,1.534,2.011,2.91
		c0.352,3.563,0.334,8.342-0.053,14.337c3.245,0.071,6.525,0.354,9.841,0.847c0.07-1.34,0.159-2.884,0.264-4.629
		c0.106-1.746,0.203-3.5,0.291-5.265c0.088-1.763,0.167-3.314,0.238-4.655c0.07-1.41,0.696-2.398,1.878-2.963
		c1.181-0.563,2.328-0.563,3.439,0c1.111,0.564,1.631,1.553,1.561,2.963c-0.177,3.315-0.441,8.279-0.793,14.893
		c-0.353,6.613-0.618,11.578-0.793,14.893c-0.071,1.411-0.688,2.399-1.852,2.964c-1.164,0.563-2.311,0.563-3.439,0
		c-1.129-0.564-1.658-1.553-1.587-2.964c0.035-0.739,0.08-1.62,0.132-2.646c0.053-1.022,0.106-2.027,0.159-3.016
		c0.053-0.986,0.114-1.887,0.185-2.697c-3.139-0.529-6.454-0.813-9.946-0.848c-0.212,4.127-0.23,7.584-0.053,10.369
		c0.07,1.411-0.45,2.398-1.561,2.963c-1.111,0.564-2.258,0.557-3.439-0.025C0.823,41.086,0.197,40.107,0.127,38.731z"/>
	<path fill="#FFFFFF" d="M47.873,30.288c0.121,0.516,0.136,0.991,0.045,1.43c-0.091,0.439-0.28,0.811-0.567,1.113
		c-0.287,0.301-0.613,0.561-0.976,0.771c-0.363,0.212-0.765,0.325-1.203,0.34c-0.439,0.017-0.855-0.037-1.248-0.157
		c-0.394-0.121-0.749-0.349-1.067-0.682c-0.317-0.333-0.538-0.756-0.658-1.271c-0.333-1.119-0.711-2.436-1.135-3.949
		c-1.967-0.182-3.964-0.316-5.992-0.407c-0.544,2.118-1.029,4.267-1.453,6.444c-0.212,1.182-0.839,1.885-1.884,2.111
		c-1.044,0.227-1.997-0.037-2.86-0.795c-0.862-0.756-1.188-1.709-0.976-2.859c1.089-5.719,2.602-11.061,4.539-16.023
		c0.121-0.271,0.28-0.71,0.477-1.315c0.196-0.605,0.378-1.143,0.544-1.611c0.166-0.47,0.386-0.999,0.658-1.589
		s0.552-1.09,0.839-1.498C35.243,9.931,35.592,9.561,36,9.227c0.409-0.333,0.84-0.56,1.294-0.681
		c0.636-0.151,1.226-0.136,1.771,0.045c0.544,0.182,0.983,0.416,1.316,0.704s0.665,0.741,0.999,1.361
		c0.333,0.621,0.575,1.128,0.727,1.521c0.151,0.394,0.347,0.938,0.59,1.634c0.121,0.334,0.211,0.576,0.272,0.727
		C44.725,19.438,46.359,24.689,47.873,30.288z M36.842,21.663c0.786,0.03,1.573,0.076,2.36,0.136
		c-0.363-1.089-0.757-2.254-1.18-3.494c-0.031,0.029-0.053,0.067-0.068,0.112c-0.016,0.046-0.03,0.092-0.045,0.137
		c-0.015,0.046-0.038,0.084-0.068,0.113C37.659,19.151,37.326,20.15,36.842,21.663z"/>
	<path fill="#FFFFFF" d="M71.203,30.472c-1.315-2.953-2.868-6.147-4.654-9.582c1.645-1.268,2.777-2.895,3.396-4.88
		c0.741-2.366,0.519-4.707-0.666-7.02c-1.186-2.313-2.916-4.067-5.193-5.265c-1.243-0.619-2.601-1.043-4.074-1.268
		c-1.473-0.225-2.934-0.104-4.385,0.36c-1.45,0.464-2.487,1.336-3.109,2.614c-0.391,0.83-0.615,1.905-0.674,3.227
		c-0.059,1.322-0.039,2.823,0.063,4.505c0.101,1.681,0.157,2.787,0.169,3.316c-0.123,5.892-0.215,10.301-0.275,13.229
		c-0.003,0.848,0.229,1.571,0.697,2.176c0.467,0.604,1.042,0.982,1.723,1.137c0.682,0.154,1.359,0.186,2.035,0.092
		c0.675-0.094,1.254-0.421,1.739-0.982c0.483-0.561,0.727-1.264,0.73-2.11c-0.004-0.706,0.007-1.756,0.035-3.149
		c0.026-1.393,0.037-2.426,0.032-3.097c0.142-0.028,0.365-0.071,0.668-0.129c0.302-0.057,0.524-0.082,0.665-0.076
		c1.959,3.55,3.609,6.923,4.948,10.124c0.385,0.865,0.977,1.438,1.776,1.723c1.217,0.408,2.378,0.106,3.483-0.904
		C71.622,33.333,71.911,31.986,71.203,30.472z M58.892,16.84c-0.021-0.319-0.056-0.938-0.102-1.858
		c-0.047-0.92-0.072-1.566-0.072-1.937c-0.002-0.371,0-1.015,0.007-1.933c0.006-0.918,0.051-1.533,0.136-1.848
		c0.565-0.01,1.15,0.14,1.754,0.449s1.116,0.694,1.538,1.154c0.42,0.461,0.708,0.924,0.864,1.39
		C63.62,14.545,62.245,16.071,58.892,16.84z"/>
	<path fill="#FFFFFF" d="M94.752,37.797c-0.265-0.688-0.767-1.243-1.508-1.666c-0.283-0.176-0.6-0.371-0.952-0.582
		c-0.353-0.213-0.688-0.396-1.005-0.557c-0.317-0.158-0.653-0.344-1.005-0.556c-0.353-0.211-0.688-0.403-1.005-0.582
		c-0.317-0.176-0.653-0.36-1.005-0.556c-0.353-0.193-0.688-0.379-1.005-0.555c1.234-1.094,2.249-2.354,3.042-3.783
		c0.793-1.43,1.287-2.918,1.481-4.471c0.194-1.552,0.114-3.069-0.238-4.551c-0.353-1.481-1.103-2.883-2.249-4.206
		c-1.146-1.322-2.619-2.407-4.417-3.253c-1.587-0.635-3.087-0.926-4.497-0.873c-1.411,0.053-2.664,0.564-3.756,1.534
		c-1.094,0.971-1.799,2.284-2.116,3.941c-0.177,0.847-0.273,1.79-0.291,2.83c-0.018,1.041,0.018,1.976,0.106,2.805
		c0.087,0.829,0.185,1.826,0.291,2.988c0.105,1.164,0.176,2.101,0.211,2.805c0.07,1.765,0.193,4.418,0.371,7.963
		c0.176,3.545,0.317,6.234,0.423,8.068c0.035,1.375,0.643,2.354,1.825,2.937c1.182,0.581,2.336,0.581,3.465,0
		c1.128-0.582,1.658-1.562,1.587-2.937c-0.036-0.705-0.071-1.481-0.106-2.328c-0.036-0.848-0.071-1.543-0.106-2.09
		s-0.071-1.332-0.105-2.354c3.42,1.94,5.96,3.369,7.618,4.286c0.741,0.388,1.472,0.537,2.196,0.449
		c0.722-0.088,1.323-0.396,1.799-0.926c0.476-0.531,0.82-1.119,1.032-1.772C95.043,39.155,95.017,38.485,94.752,37.797z
		 M84.695,26.887c-0.727,1.197-1.68,2.111-2.858,2.738c-0.04-0.432-0.079-1.08-0.118-1.943c-0.04-0.864-0.079-1.514-0.118-1.945
		c-0.04-0.313-0.099-0.883-0.177-1.709c-0.158-1.256-0.256-2.16-0.295-2.71c0-2.082,0.766-2.594,2.298-1.532
		c1.217,0.825,1.916,1.915,2.092,3.271C85.697,24.41,85.421,25.688,84.695,26.887z"/>
	<path fill="#FFFFFF" d="M103.847,11.591c-0.582,0.706-1.402,1.059-2.46,1.059c-1.058,0-1.887-0.353-2.487-1.059
		c-0.6-0.705-0.899-1.489-0.899-2.354c0-0.865,0.299-1.658,0.899-2.381s1.429-1.085,2.487-1.085c1.058,0,1.878,0.362,2.46,1.085
		s0.873,1.517,0.873,2.381C104.72,10.101,104.429,10.886,103.847,11.591z M105.249,17.517c-0.177,5.961-0.018,11.922,0.476,17.882
		c0.141,1.411-0.344,2.398-1.455,2.963s-2.267,0.557-3.465-0.025c-1.2-0.582-1.852-1.562-1.958-2.938
		c-0.495-5.96-0.67-11.921-0.529-17.882c0.035-1.41,0.635-2.407,1.799-2.989c1.164-0.582,2.319-0.582,3.465,0
		C104.729,15.109,105.284,16.106,105.249,17.517z"/>
	<path fill="#FFFFFF" d="M112.919,43.124c-1.306,0.457-2.38,0.229-3.228-0.688c-0.847-0.916-1.156-2.026-0.926-3.333
		c0.229-1.305,1.013-2.188,2.354-2.645c0.918-0.317,1.647-0.688,2.195-1.111c0.546-0.424,0.864-0.891,0.952-1.402
		c0.088-0.511,0.088-1.013,0-1.508c-0.088-0.493-0.317-1.049-0.688-1.666s-0.74-1.172-1.11-1.667
		c-0.37-0.493-0.794-1.058-1.271-1.692c-0.476-0.635-0.838-1.164-1.083-1.588c-1.517-2.574-2.046-5.025-1.587-7.354
		c0.352-1.799,1.19-3.298,2.513-4.497c1.323-1.198,2.813-2.027,4.471-2.486c1.656-0.458,3.402-0.652,5.236-0.582
		c1.588,0.071,2.627,0.847,3.123,2.328c0.457,1.411,0.246,2.61-0.637,3.598c-0.635,0.67-1.463,0.987-2.486,0.952
		c-1.233-0.035-2.24,0.142-3.016,0.529s-1.277,0.996-1.508,1.825c-0.23,0.829-0.025,1.878,0.609,3.147
		c0.211,0.459,0.625,1.031,1.242,1.719c0.616,0.688,0.995,1.121,1.139,1.297c2.01,2.855,2.908,5.432,2.697,7.725
		C121.524,38.116,118.527,41.147,112.919,43.124z"/>
	<path fill="#FFFFFF" d="M137.731,14.659c-3.879-0.317-4.797,1.835-2.75,6.455c0.457,1.094,1.251,2.575,2.381,4.444l0.74,1.375
		c1.692,3.175,2.662,5.731,2.91,7.672c0.211,1.41,0.149,2.726-0.187,3.94c-0.336,1.218-0.908,2.302-1.719,3.254
		c-0.813,0.953-1.703,1.781-2.672,2.486c-0.971,0.705-2.09,1.41-3.359,2.116c-0.777,0.353-1.535,0.476-2.274,0.37
		c-0.74-0.105-1.341-0.434-1.8-0.979c-0.459-0.549-0.803-1.139-1.03-1.772c-0.229-0.636-0.204-1.297,0.077-1.983
		c0.283-0.688,0.796-1.226,1.535-1.613c1.552-0.848,2.627-1.844,3.228-2.989s0.774-2.31,0.528-3.492
		c-0.246-1.181-0.696-2.485-1.35-3.915c-0.652-1.428-1.367-2.785-2.143-4.072s-1.454-2.681-2.036-4.181
		c-0.582-1.499-0.892-2.813-0.926-3.941c-0.036-3.068,1.005-5.572,3.12-7.513c2.117-1.939,4.69-2.804,7.725-2.592
		c1.377,0.141,2.355,0.802,2.938,1.983c0.582,1.183,0.582,2.328,0,3.438C140.087,14.263,139.108,14.766,137.731,14.659z"/>
	<path fill="#FFFFFF" d="M164.638,10.559c2.352,1.207,4.171,3.002,5.456,5.386c1.284,2.385,1.888,4.931,1.812,7.64
		c-0.078,2.708-0.783,5.208-2.113,7.5c-1.237,2.074-2.996,3.646-5.271,4.713c-2.274,1.068-4.659,1.557-7.149,1.463
		c-2.492-0.092-4.776-0.727-6.851-1.903c-1.58-0.864-2.94-2.026-4.088-3.481c-1.146-1.455-1.988-3.02-2.53-4.689
		c-0.542-1.673-0.773-3.429-0.695-5.271c0.076-1.842,0.472-3.583,1.184-5.225c0.773-1.702,1.85-3.188,3.229-4.458
		c1.377-1.269,2.896-2.213,4.551-2.833c1.656-0.618,3.42-0.959,5.293-1.021s3.662,0.263,5.365,0.975
		c0.586,0.217,1.051,0.573,1.394,1.068C164.435,10.481,164.576,10.527,164.638,10.559z M164.451,27.973
		c0.866-1.331,1.34-2.811,1.418-4.435c0.075-1.626-0.271-3.142-1.045-4.551c-0.775-1.409-1.857-2.485-3.252-3.229
		c-0.435-0.216-0.773-0.479-1.021-0.789c-1.361-0.372-2.692-0.519-3.992-0.441c-1.301,0.077-2.539,0.48-3.717,1.207
		c-1.176,0.728-2.09,1.727-2.738,2.996c-0.93,1.764-1.154,3.723-0.674,5.874c0.479,2.151,1.54,3.802,3.182,4.946
		c1.207,0.865,2.568,1.4,4.086,1.602c1.516,0.202,2.987,0.031,4.412-0.511C162.531,30.102,163.646,29.211,164.451,27.973z"/>
	<path fill="#FFFFFF" d="M191.606,10.863c0-0.847,0.246-1.561,0.74-2.143c0.493-0.582,1.075-0.943,1.745-1.085
		c0.671-0.141,1.341-0.141,2.012,0c0.669,0.142,1.234,0.503,1.691,1.085c0.459,0.582,0.688,1.296,0.688,2.143
		c-0.106,5.961-0.405,11.604-0.899,16.931c-0.035,0.389-0.07,1.049-0.104,1.982c-0.036,0.936-0.089,1.667-0.159,2.196
		c-0.07,0.528-0.185,1.155-0.344,1.878c-0.159,0.725-0.423,1.357-0.794,1.904c-0.37,0.547-0.82,1.031-1.349,1.455
		c-0.565,0.316-1.155,0.467-1.772,0.449s-1.19-0.166-1.72-0.449c-0.6-0.317-1.182-0.705-1.745-1.164s-1.175-1.049-1.826-1.772
		c-0.651-0.722-1.129-1.251-1.429-1.587c-0.301-0.335-0.838-1.014-1.612-2.037c-0.776-1.021-1.2-1.587-1.271-1.691
		c-0.672-0.883-1.395-1.869-2.17-2.963c-0.104,3.104-0.123,6.154-0.053,9.151c0.07,1.623-0.635,2.681-2.115,3.175
		c-1.342,0.459-2.541,0.229-3.599-0.688c-0.741-0.6-1.13-1.428-1.164-2.486c-0.177-6.313,0.07-12.608,0.741-18.887
		c0.176-1.376,0.775-2.372,1.799-2.989c1.021-0.617,2.15-0.626,3.385-0.026c0.883,0.459,1.641,1.058,2.275,1.799
		c0.635,0.74,1.314,1.781,2.037,3.121c0.723,1.341,1.189,2.188,1.402,2.539c2.397,3.704,4.09,6.121,5.078,7.248
		c0.211-1.656,0.353-3.57,0.424-5.74c0.069-2.169,0.097-4.108,0.078-5.819C191.562,14.682,191.571,12.839,191.606,10.863z"/>
	<path fill="#FFFFFF" d="M212.869,22.332c-0.478,1.292-1.371,2.03-2.684,2.213c-1.313,0.185-2.416-0.158-3.309-1.027
		c-0.895-0.868-1.088-1.945-0.576-3.228c1.58-4.013,3.927-10.025,7.043-18.031c0.572-1.483,1.656-2.237,3.248-2.26
		c1.484-0.019,2.552,0.534,3.199,1.659c0.449,0.805,0.49,1.685,0.121,2.642C218.375,8.29,216.028,14.303,212.869,22.332z"/>
	<path fill="#FFFFFF" d="M203.298,26.893c0.601-0.723,1.42-1.085,2.461-1.085c1.039,0,1.859,0.362,2.461,1.085
		c0.599,0.723,0.898,1.518,0.898,2.381c0,0.864-0.301,1.648-0.898,2.354c-0.602,0.707-1.422,1.06-2.461,1.06
		c-1.041,0-1.86-0.353-2.461-1.06c-0.601-0.705-0.898-1.488-0.898-2.354S202.698,27.616,203.298,26.893z"/>
</g>
</svg>
